<svg xmlns="http://www.w3.org/2000/svg" xmlns:xlink="http://www.w3.org/1999/xlink" width="128.41" height="46.253" viewBox="0 0 128.41 46.253">
  <defs>
    <clipPath id="clip-path">
      <path id="Path_10" data-name="Path 10" d="M0,13.835H128.41V-32.418H0Z" transform="translate(0 32.418)" fill="none"/>
    </clipPath>
  </defs>
  <g id="Group_2055" data-name="Group 2055" transform="translate(2 32.418)">
    <g id="Group_11" data-name="Group 11" transform="translate(-2 -32.418)" clip-path="url(#clip-path)">
      <g id="Group_4" data-name="Group 4" transform="translate(0.001 17.89)">
        <path id="Path_3" data-name="Path 3" d="M5.263,8.269a26.449,26.449,0,0,1-6.395.719c-6.777,0-11.2-4.323-11.2-12.162V-7.213c0-7.836,4.423-12.162,11.2-12.162a26.433,26.433,0,0,1,6.395.721c.719.194,1.01.385,1.01,1.106v4.279a.866.866,0,0,1-.915.818h-.1A45.6,45.6,0,0,0-.6-12.79c-2.163,0-3.942,1.3-3.942,5.577v4.039C-4.545,1.106-2.765,2.4-.6,2.4a45.6,45.6,0,0,0,5.865-.338h.1a.866.866,0,0,1,.915.819V7.16c0,.725-.291.915-1.01,1.109" transform="translate(12.332 19.375)" fill="#162a7d"/>
      </g>
      <g id="Group_5" data-name="Group 5" transform="translate(66.918 0)">
        <path id="Path_4" data-name="Path 4" d="M.732,4.269A2.448,2.448,0,0,1-1.118.218L7-9.154A2.442,2.442,0,0,1,8.818-10a2.375,2.375,0,0,1,1.839.8L19.044-.01a2.449,2.449,0,1,1-3.618,3.3L8.9-3.866,2.586,3.424a2.448,2.448,0,0,1-1.853.845" transform="translate(1.716 10.003)" fill="#4b9def"/>
      </g>
      <g id="Group_6" data-name="Group 6" transform="translate(22.973 17.887)">
        <path id="Path_5" data-name="Path 5" d="M6.288,8.266H.96a.957.957,0,0,1-.95-.95V6.554A10.506,10.506,0,0,1-6.6,8.7c-4.139,0-8.133-2-8.133-8.185V.088c0-5.569,3.568-8.041,11.7-8.041H-.465V-9.666c0-2.712-1.333-3.28-3.566-3.28-3.043,0-6.422.19-7.9.331h-.237a.777.777,0,0,1-.857-.856v-3.851a1.067,1.067,0,0,1,.9-1.049,38.378,38.378,0,0,1,8.227-1c6.85,0,11.129,2.758,11.129,9.7V7.316a.956.956,0,0,1-.95.95M-.323-3.385H-3.033c-3.33,0-4.185,1.136-4.185,3.473V.51c0,2,1,2.381,3,2.381a8.828,8.828,0,0,0,3.9-1.047Z" transform="translate(14.733 19.368)" fill="#162a7d"/>
      </g>
      <g id="Group_7" data-name="Group 7" transform="translate(48.799 17.887)">
        <path id="Path_6" data-name="Path 6" d="M2.916,8.394a37.109,37.109,0,0,1-8.653-1.05,1.074,1.074,0,0,1-.906-1.091V2.4a.876.876,0,0,1,.906-.9h.185c2.57.334,6.567.666,8.086.666C4.82,2.161,5.343,1.543,5.343.3c0-.712-.429-1.236-1.762-1.993L-2.6-5.26A7.851,7.851,0,0,1-6.833-12.3c0-4.8,3.185-7.371,9.749-7.371a30.794,30.794,0,0,1,8.467,1.094,1.071,1.071,0,0,1,.9,1.093v3.854a.8.8,0,0,1-.809.9h-.144a76.409,76.409,0,0,0-7.894-.618c-1.852,0-2.518.287-2.518,1.38,0,.713.522,1.094,1.472,1.664l5.9,3.377c3.946,2.281,4.8,4.755,4.8,7.322,0,4.473-3.235,8-10.179,8" transform="translate(6.833 19.669)" fill="#162a7d"/>
      </g>
      <g id="Group_8" data-name="Group 8" transform="translate(73.767 18.268)">
        <path id="Path_7" data-name="Path 7" d="M2.02,8.152h-5.8a.956.956,0,0,1-.949-.95V-18.151a.952.952,0,0,1,.949-.95h5.8a.951.951,0,0,1,.949.95V7.2a.955.955,0,0,1-.949.95" transform="translate(4.733 19.101)" fill="#162a7d"/>
      </g>
      <g id="Group_9" data-name="Group 9" transform="translate(85.609 12.418)">
        <path id="Path_8" data-name="Path 8" d="M4.951,9.915a20.37,20.37,0,0,1-3.757.384C-4.038,10.3-6.8,8.919-6.8,2.164V-11.629l-3.8-.621a1.11,1.11,0,0,1-1-1v-3.14a1.036,1.036,0,0,1,1-1h3.8v-3.9a1.02,1.02,0,0,1,.95-.952l5.806-1H.1a.815.815,0,0,1,.859.806v5.044h3.9a.952.952,0,0,1,.952.95v3.852a.953.953,0,0,1-.952.952H.959V2.209c0,1.9.14,2.237,1.567,2.237h2.33c.621,0,1,.283,1,.806V8.964a.976.976,0,0,1-.9.952" transform="translate(11.6 23.233)" fill="#162a7d"/>
      </g>
      <g id="Group_10" data-name="Group 10" transform="translate(106.437 17.887)">
        <path id="Path_9" data-name="Path 9" d="M6.288,8.266H.965a.956.956,0,0,1-.955-.95V6.554A10.5,10.5,0,0,1-6.6,8.7c-4.141,0-8.137-2-8.137-8.185V.088c0-5.569,3.567-8.041,11.7-8.041h2.57V-9.666c0-2.712-1.337-3.28-3.57-3.28-3.042,0-6.418.19-7.893.331h-.237a.773.773,0,0,1-.855-.856v-3.851a1.066,1.066,0,0,1,.9-1.049,38.415,38.415,0,0,1,8.227-1c6.849,0,11.129,2.758,11.129,9.7V7.316a.955.955,0,0,1-.95.95M-.321-3.385H-3.034c-3.327,0-4.183,1.136-4.183,3.473V.51c0,2,1,2.381,3,2.381a8.84,8.84,0,0,0,3.9-1.047Z" transform="translate(14.734 19.368)" fill="#162a7d"/>
      </g>
    </g>
  </g>
</svg>
